<svg aria-hidden="true" aria-label="插图" focusable="false" height="1.025ex" role="img" style="max-width: 300vw !important;width: 1.054ex;display: initial;" viewBox="0 -442 466 453" xmlns="http://www.w3.org/2000/svg"><g fill="#333333" stroke="#333333" stroke-width="0" transform="scale(1,-1)"><g data-mml-node="math"><g data-mml-node="mi"><path d="M39 168Q39 225 58 272T107 350T174 402T244 433T307 442H310Q355 442 388 420T421 355Q421 265 310 237Q261 224 176 223Q139 223 138 221Q138 219 132 186T125 128Q125 81 146 54T209 26T302 45T394 111Q403 121 406 121Q410 121 419 112T429 98T420 82T390 55T344 24T281 -1T205 -11Q126 -11 83 42T39 168ZM373 353Q367 405 305 405Q272 405 244 391T199 357T170 316T154 280T149 261Q149 260 169 260Q282 260 327 284T373 353Z" data-c="1D452"></path></g></g></g></svg>